<svg width="4096" height="4096" viewBox="0 0 4096 4096" fill="none" xmlns="http://www.w3.org/2000/svg">
<path d="M665.781 2290.19V1919.71H763.486V1985.08H767.818C775.519 1963.37 788.354 1946.24 806.323 1933.7C824.291 1921.16 845.79 1914.89 870.818 1914.89C896.167 1914.89 917.745 1921.24 935.554 1933.94C953.362 1946.48 965.234 1963.53 971.17 1985.08H975.021C982.561 1963.85 996.198 1946.89 1015.93 1934.18C1035.83 1921.32 1059.33 1914.89 1086.44 1914.89C1120.94 1914.89 1148.93 1925.9 1170.43 1947.93C1192.09 1969.8 1202.92 2000.83 1202.92 2041.03V2290.19H1100.64V2061.29C1100.64 2040.71 1095.19 2025.28 1084.28 2014.98C1073.37 2004.69 1059.73 1999.55 1043.37 1999.55C1024.76 1999.55 1010.24 2005.5 999.808 2017.4C989.38 2029.13 984.166 2044.65 984.166 2063.95V2290.19H884.776V2059.12C884.776 2040.95 879.562 2026.48 869.133 2015.71C858.865 2004.93 845.308 1999.55 828.463 1999.55C817.072 1999.55 806.804 2002.44 797.659 2008.23C788.675 2013.86 781.535 2021.82 776.241 2032.11C770.946 2042.24 768.299 2054.14 768.299 2067.81V2290.19H665.781Z" fill="white"/>
<path d="M1425.25 2297.42C1387.23 2297.42 1354.5 2289.71 1327.06 2274.27C1299.79 2258.67 1278.77 2236.64 1264.01 2208.18C1249.25 2179.56 1241.87 2145.71 1241.87 2106.64C1241.87 2068.53 1249.25 2035.08 1264.01 2006.3C1278.77 1977.52 1299.55 1955.09 1326.34 1939.01C1353.29 1922.93 1384.9 1914.89 1421.16 1914.89C1445.55 1914.89 1468.25 1918.83 1489.26 1926.71C1510.44 1934.42 1528.89 1946.08 1544.61 1961.68C1560.5 1977.28 1572.85 1996.89 1581.68 2020.53C1590.5 2044.01 1594.91 2071.5 1594.91 2103.02V2131.24H1282.78V2067.56H1498.41C1498.41 2052.77 1495.2 2039.67 1488.78 2028.25C1482.37 2016.83 1473.46 2007.91 1462.07 2001.48C1450.84 1994.88 1437.76 1991.59 1422.84 1991.59C1407.28 1991.59 1393.48 1995.21 1381.45 2002.44C1369.58 2009.52 1360.27 2019.08 1353.54 2031.14C1346.8 2043.04 1343.35 2056.31 1343.19 2070.94V2131.48C1343.19 2149.81 1346.56 2165.65 1353.29 2179C1360.19 2192.34 1369.9 2202.63 1382.41 2209.87C1394.93 2217.11 1409.77 2220.72 1426.94 2220.72C1438.33 2220.72 1448.75 2219.12 1458.22 2215.9C1467.69 2212.68 1475.79 2207.86 1482.53 2201.43C1489.26 2195 1494.4 2187.12 1497.93 2177.79L1592.75 2184.06C1587.93 2206.9 1578.07 2226.83 1563.15 2243.88C1548.39 2260.76 1529.29 2273.95 1505.87 2283.43C1482.61 2292.76 1455.73 2297.42 1425.25 2297.42Z" fill="white"/>
<path d="M1801.72 2297.42C1764.34 2297.42 1732.01 2289.46 1704.74 2273.55C1677.62 2257.47 1656.69 2235.12 1641.93 2206.49C1627.17 2177.71 1619.79 2144.35 1619.79 2106.4C1619.79 2068.13 1627.17 2034.68 1641.93 2006.06C1656.69 1977.28 1677.62 1954.93 1704.74 1939.01C1732.01 1922.93 1764.34 1914.89 1801.72 1914.89C1839.1 1914.89 1871.35 1922.93 1898.46 1939.01C1925.74 1954.93 1946.75 1977.28 1961.51 2006.06C1976.27 2034.68 1983.65 2068.13 1983.65 2106.4C1983.65 2144.35 1976.27 2177.71 1961.51 2206.49C1946.75 2235.12 1925.74 2257.47 1898.46 2273.55C1871.35 2289.46 1839.1 2297.42 1801.72 2297.42ZM1802.2 2217.83C1819.21 2217.83 1833.41 2213.01 1844.8 2203.36C1856.19 2193.55 1864.77 2180.2 1870.55 2163.32C1876.48 2146.44 1879.45 2127.22 1879.45 2105.67C1879.45 2084.13 1876.48 2064.91 1870.55 2048.03C1864.77 2031.14 1856.19 2017.8 1844.8 2007.99C1833.41 1998.18 1819.21 1993.28 1802.2 1993.28C1785.03 1993.28 1770.6 1998.18 1758.88 2007.99C1747.33 2017.8 1738.59 2031.14 1732.65 2048.03C1726.88 2064.91 1723.99 2084.13 1723.99 2105.67C1723.99 2127.22 1726.88 2146.44 1732.65 2163.32C1738.59 2180.2 1747.33 2193.55 1758.88 2203.36C1770.6 2213.01 1785.03 2217.83 1802.2 2217.83Z" fill="white"/>
<path d="M2086.86 2290.19L1986.27 1919.71H2089.99L2147.26 2168.63H2150.63L2210.32 1919.71H2312.11L2372.76 2167.18H2375.89L2432.2 1919.71H2535.68L2435.33 2290.19H2326.79L2263.26 2057.19H2258.69L2195.15 2290.19H2086.86Z" fill="white"/>
<path d="M2759.88 1919.71V1996.89H2537.27V1919.71H2759.88ZM2587.81 1830.95H2690.33V2176.34C2690.33 2185.83 2691.77 2193.23 2694.66 2198.53C2697.55 2203.68 2701.56 2207.3 2706.69 2209.39C2711.99 2211.48 2718.08 2212.52 2724.98 2212.52C2729.79 2212.52 2734.61 2212.12 2739.42 2211.32C2744.23 2210.35 2747.92 2209.63 2750.49 2209.15L2766.61 2285.61C2761.48 2287.21 2754.26 2289.06 2744.96 2291.15C2735.65 2293.4 2724.34 2294.77 2711.02 2295.25C2686.32 2296.22 2664.66 2292.92 2646.05 2285.36C2627.6 2277.81 2613.24 2266.07 2602.97 2250.15C2592.7 2234.23 2587.65 2214.13 2587.81 2189.85V1830.95Z" fill="white"/>
<path d="M2799.55 2290.19V1919.71H2902.07V2290.19H2799.55ZM2851.05 1871.96C2835.81 1871.96 2822.73 1866.89 2811.82 1856.76C2801.07 1846.47 2795.7 1834.17 2795.7 1819.86C2795.7 1805.71 2801.07 1793.57 2811.82 1783.44C2822.73 1773.15 2835.81 1768 2851.05 1768C2866.29 1768 2879.29 1773.15 2890.04 1783.44C2900.95 1793.57 2906.4 1805.71 2906.4 1819.86C2906.4 1834.17 2900.95 1846.47 2890.04 1856.76C2879.29 1866.89 2866.29 1871.96 2851.05 1871.96Z" fill="white"/>
<path d="M3301.7 1919.71L3172.47 2290.19H3056.96L2927.72 1919.71H3036.02L3112.79 2184.79H3116.64L3193.17 1919.71H3301.7Z" fill="white"/>
<path d="M3483.6 2297.42C3445.58 2297.42 3412.85 2289.71 3385.41 2274.27C3358.14 2258.67 3337.12 2236.64 3322.36 2208.18C3307.6 2179.56 3300.22 2145.71 3300.22 2106.64C3300.22 2068.53 3307.6 2035.08 3322.36 2006.3C3337.12 1977.52 3357.9 1955.09 3384.69 1939.01C3411.65 1922.93 3443.25 1914.89 3479.51 1914.89C3503.9 1914.89 3526.6 1918.83 3547.61 1926.71C3568.79 1934.42 3587.24 1946.08 3602.97 1961.68C3618.85 1977.28 3631.2 1996.89 3640.03 2020.53C3648.85 2044.01 3653.26 2071.5 3653.26 2103.02V2131.24H3341.13V2067.56H3556.76C3556.76 2052.77 3553.55 2039.67 3547.13 2028.25C3540.72 2016.83 3531.81 2007.91 3520.42 2001.48C3509.19 1994.88 3496.11 1991.59 3481.19 1991.59C3465.63 1991.59 3451.83 1995.21 3439.8 2002.44C3427.93 2009.52 3418.62 2019.08 3411.89 2031.14C3405.15 2043.04 3401.7 2056.31 3401.54 2070.94V2131.48C3401.54 2149.81 3404.91 2165.65 3411.65 2179C3418.54 2192.34 3428.25 2202.63 3440.76 2209.87C3453.28 2217.11 3468.12 2220.72 3485.29 2220.72C3496.68 2220.72 3507.1 2219.12 3516.57 2215.9C3526.04 2212.68 3534.14 2207.86 3540.88 2201.43C3547.61 2195 3552.75 2187.12 3556.28 2177.79L3651.1 2184.06C3646.28 2206.9 3636.42 2226.83 3621.5 2243.88C3606.74 2260.76 3587.64 2273.95 3564.22 2283.43C3540.96 2292.76 3514.08 2297.42 3483.6 2297.42Z" fill="white"/>
<path d="M222.696 1786.09C255.69 1780.96 290.641 1819.87 300.707 1873.56C310.773 1926.94 292.599 1974.6 259.605 1980.03C226.89 1985.46 191.66 1946.55 181.314 1892.86C170.968 1839.47 189.702 1791.82 222.696 1786.09ZM422.617 1786.09C455.89 1791.82 474.345 1839.47 464.558 1892.86C453.933 1946.55 418.982 1985.46 385.988 1980.03C352.715 1974.6 334.54 1926.94 344.886 1873.56C354.951 1819.87 389.903 1780.96 422.617 1786.09ZM73.1052 1924.83C104.981 1910.05 148.32 1936.9 170.968 1983.65C192.219 2031.3 184.949 2081.37 153.353 2096.15C121.757 2110.93 78.6973 2084.38 56.6082 2037.03C34.5191 1989.68 42.3481 1939.31 73.1052 1924.83ZM576.402 1924.83C607.159 1939.31 614.988 1989.68 592.899 2037.03C570.81 2084.38 527.75 2110.93 496.154 2096.15C464.558 2081.37 457.288 2031.3 478.539 1983.65C501.187 1936.9 544.527 1910.05 576.402 1924.83ZM529.707 2249.97C530.826 2278.32 510.694 2309.69 486.647 2321.45C436.597 2346.18 377.32 2294.91 321.678 2294.91C266.036 2294.91 206.199 2348.3 156.988 2321.45C129.027 2306.67 109.734 2267.46 113.369 2234.89C118.402 2189.95 168.452 2165.82 198.091 2132.94C237.515 2090.42 265.476 2010.49 321.678 2010.49C377.6 2010.49 407.238 2089.21 444.986 2132.94C476.022 2169.74 527.75 2200.81 529.707 2249.97Z" fill="#FFF6F6"/>
<path d="M1922.14 2096.13C1922.14 2171.15 1861.46 2231.97 1786.61 2231.97C1711.75 2231.97 1651.07 2171.15 1651.07 2096.13C1651.07 2021.11 1711.75 1960.29 1786.61 1960.29C1861.46 1960.29 1922.14 2021.11 1922.14 2096.13Z" fill="white"/>
<path d="M1770.78 2018.65C1782.16 2017 1794.21 2029.51 1797.68 2046.77C1801.15 2063.93 1794.88 2079.24 1783.51 2080.99C1772.22 2082.73 1760.08 2070.23 1756.51 2052.97C1752.94 2035.81 1759.4 2020.49 1770.78 2018.65ZM1839.72 2018.65C1851.19 2020.49 1857.55 2035.81 1854.18 2052.97C1850.52 2070.23 1838.46 2082.73 1827.09 2080.99C1815.61 2079.24 1809.35 2063.93 1812.91 2046.77C1816.38 2029.51 1828.44 2017 1839.72 2018.65ZM1719.2 2063.25C1730.19 2058.5 1745.13 2067.13 1752.94 2082.15C1760.27 2097.47 1757.76 2113.56 1746.87 2118.31C1735.97 2123.06 1721.12 2114.53 1713.51 2099.31C1705.89 2084.09 1708.59 2067.9 1719.2 2063.25ZM1892.75 2063.25C1903.35 2067.9 1906.05 2084.09 1898.43 2099.31C1890.82 2114.53 1875.97 2123.06 1865.07 2118.31C1854.18 2113.56 1851.67 2097.47 1859 2082.15C1866.81 2067.13 1881.75 2058.5 1892.75 2063.25ZM1876.64 2167.76C1877.03 2176.87 1870.09 2186.95 1861.8 2190.73C1844.54 2198.68 1824.1 2182.2 1804.91 2182.2C1785.72 2182.2 1765.09 2199.36 1748.12 2190.73C1738.48 2185.98 1731.83 2173.38 1733.08 2162.91C1734.82 2148.46 1752.07 2140.71 1762.29 2130.14C1775.89 2116.47 1785.53 2090.78 1804.91 2090.78C1824.19 2090.78 1834.41 2116.08 1847.43 2130.14C1858.13 2141.97 1875.97 2151.95 1876.64 2167.76Z" fill="black"/>
<path d="M3864.11 2191.71C3864.11 2208.64 3858.25 2222.81 3846.52 2234.24C3834.79 2245.66 3820.12 2251.38 3802.53 2251.38C3785.77 2251.38 3771.53 2244.82 3759.8 2231.7C3748.07 2218.58 3742.2 2202.08 3742.2 2182.19C3742.2 2167.8 3745.34 2151.93 3751.63 2134.58C3758.33 2117.23 3766.92 2099.67 3777.39 2081.89C3788.28 2064.12 3800.43 2046.56 3813.84 2029.21C3827.66 2011.43 3841.49 1994.93 3855.31 1979.69L3872.28 1993.66C3853.43 2016.09 3837.72 2038.73 3825.15 2061.58C3812.58 2084.43 3805.04 2106.86 3802.53 2128.87C3819.29 2130.13 3833.74 2136.48 3845.89 2147.91C3858.04 2159.33 3864.11 2173.93 3864.11 2191.71ZM4044.46 2191.71C4044.46 2208.64 4038.59 2222.81 4026.86 2234.24C4015.13 2245.66 4000.47 2251.38 3982.88 2251.38C3966.12 2251.38 3951.88 2244.82 3940.15 2231.7C3928.42 2218.58 3922.55 2202.08 3922.55 2182.19C3922.55 2167.8 3925.69 2151.93 3931.98 2134.58C3938.68 2117.23 3947.27 2099.67 3957.74 2081.89C3968.63 2064.12 3980.78 2046.56 3994.19 2029.21C4008.01 2011.43 4021.84 1994.93 4035.66 1979.69L4052 1993.66C4033.15 2016.09 4017.44 2038.73 4004.87 2061.58C3992.72 2084.43 3985.39 2106.86 3982.88 2128.87C3999.63 2130.13 4014.09 2136.48 4026.24 2147.91C4038.38 2159.33 4044.46 2173.93 4044.46 2191.71Z" fill="black"/>
</svg>
