<svg width="4008" height="561" viewBox="0 0 4008 561" fill="none" xmlns="http://www.w3.org/2000/svg">
<path d="M621.781 522.188V151.712H719.486V217.076H723.818C731.519 195.368 744.354 178.243 762.323 165.701C780.291 153.159 801.79 146.888 826.818 146.888C852.167 146.888 873.745 153.24 891.554 165.942C909.362 178.485 921.234 195.529 927.17 217.076H931.021C938.561 195.851 952.198 178.887 971.932 166.184C991.826 153.32 1015.33 146.888 1042.44 146.888C1076.94 146.888 1104.93 157.903 1126.43 179.932C1148.09 201.8 1158.92 232.834 1158.92 273.033V522.188H1056.64V293.294C1056.64 272.712 1051.19 257.275 1040.28 246.984C1029.37 236.693 1015.73 231.548 999.367 231.548C980.756 231.548 966.237 237.497 955.808 249.396C945.38 261.134 940.166 276.651 940.166 295.947V522.188H840.776V291.123C840.776 272.953 835.562 258.481 825.133 247.708C814.865 236.934 801.308 231.548 784.463 231.548C773.072 231.548 762.804 234.442 753.659 240.231C744.675 245.859 737.535 253.818 732.241 264.109C726.946 274.239 724.299 286.138 724.299 299.806V522.188H621.781Z" fill="white"/>
<path d="M1381.25 529.424C1343.23 529.424 1310.5 521.706 1283.06 506.269C1255.79 490.672 1234.77 468.643 1220.01 440.182C1205.25 411.56 1197.87 377.712 1197.87 338.638C1197.87 300.53 1205.25 267.084 1220.01 238.301C1234.77 209.518 1255.55 187.087 1282.34 171.008C1309.29 154.928 1340.9 146.888 1377.16 146.888C1401.55 146.888 1424.25 150.828 1445.26 158.707C1466.44 166.425 1484.89 178.083 1500.61 193.68C1516.5 209.277 1528.85 228.895 1537.68 252.532C1546.5 276.008 1550.91 303.504 1550.91 335.021V363.24H1238.78V299.565H1454.41C1454.41 284.771 1451.2 271.667 1444.78 260.25C1438.37 248.833 1429.46 239.909 1418.07 233.477C1406.84 226.885 1393.76 223.588 1378.84 223.588C1363.28 223.588 1349.48 227.206 1337.45 234.442C1325.58 241.517 1316.27 251.084 1309.54 263.144C1302.8 275.043 1299.35 288.309 1299.19 302.941V363.482C1299.19 381.812 1302.56 397.651 1309.29 410.997C1316.19 424.343 1325.9 434.634 1338.41 441.87C1350.93 449.106 1365.77 452.724 1382.94 452.724C1394.33 452.724 1404.75 451.116 1414.22 447.9C1423.69 444.684 1431.79 439.86 1438.53 433.428C1445.26 426.996 1450.4 419.117 1453.93 409.791L1548.75 416.062C1543.93 438.895 1534.07 458.834 1519.15 475.879C1504.39 492.762 1485.29 505.948 1461.87 515.435C1438.61 524.761 1411.73 529.424 1381.25 529.424Z" fill="white"/>
<path d="M1757.72 529.424C1720.34 529.424 1688.01 521.465 1660.74 505.546C1633.62 489.466 1612.69 467.115 1597.93 438.493C1583.17 409.711 1575.79 376.345 1575.79 338.397C1575.79 300.128 1583.17 266.682 1597.93 238.06C1612.69 209.277 1633.62 186.926 1660.74 171.008C1688.01 154.928 1720.34 146.888 1757.72 146.888C1795.1 146.888 1827.35 154.928 1854.46 171.008C1881.74 186.926 1902.75 209.277 1917.51 238.06C1932.27 266.682 1939.65 300.128 1939.65 338.397C1939.65 376.345 1932.27 409.711 1917.51 438.493C1902.75 467.115 1881.74 489.466 1854.46 505.546C1827.35 521.465 1795.1 529.424 1757.72 529.424ZM1758.2 449.83C1775.21 449.83 1789.41 445.006 1800.8 435.358C1812.19 425.549 1820.77 412.203 1826.55 395.319C1832.48 378.436 1835.45 359.22 1835.45 337.674C1835.45 316.127 1832.48 296.912 1826.55 280.028C1820.77 263.144 1812.19 249.798 1800.8 239.99C1789.41 230.181 1775.21 225.277 1758.2 225.277C1741.03 225.277 1726.6 230.181 1714.88 239.99C1703.33 249.798 1694.59 263.144 1688.65 280.028C1682.88 296.912 1679.99 316.127 1679.99 337.674C1679.99 359.22 1682.88 378.436 1688.65 395.319C1694.59 412.203 1703.33 425.549 1714.88 435.358C1726.6 445.006 1741.03 449.83 1758.2 449.83Z" fill="white"/>
<path d="M2042.86 522.188L1942.27 151.712H2045.99L2103.26 400.626H2106.63L2166.32 151.712H2268.11L2328.76 399.179H2331.89L2388.2 151.712H2491.68L2391.33 522.188H2282.79L2219.26 289.193H2214.69L2151.16 522.188H2042.86Z" fill="white"/>
<path d="M2715.88 151.712V228.895H2493.27V151.712H2715.88ZM2543.81 62.952H2646.33V408.344C2646.33 417.831 2647.77 425.228 2650.66 430.534C2653.55 435.679 2657.56 439.297 2662.69 441.388C2667.99 443.478 2674.08 444.523 2680.98 444.523C2685.79 444.523 2690.61 444.121 2695.42 443.317C2700.23 442.352 2703.92 441.629 2706.49 441.147L2722.61 517.605C2717.48 519.213 2710.26 521.063 2700.96 523.153C2691.65 525.404 2680.34 526.771 2667.02 527.253C2642.32 528.218 2620.66 524.922 2602.05 517.364C2583.6 509.807 2569.24 498.069 2558.97 482.15C2548.7 466.231 2543.65 446.131 2543.81 421.851V62.952Z" fill="white"/>
<path d="M2755.55 522.188V151.712H2858.07V522.188H2755.55ZM2807.05 103.955C2791.81 103.955 2778.73 98.8901 2767.82 88.7599C2757.07 78.4689 2751.7 66.168 2751.7 51.857C2751.7 37.7069 2757.07 25.5667 2767.82 15.4365C2778.73 5.14551 2791.81 0 2807.05 0C2822.29 0 2835.29 5.14551 2846.04 15.4365C2856.95 25.5667 2862.4 37.7069 2862.4 51.857C2862.4 66.168 2856.95 78.4689 2846.04 88.7599C2835.29 98.8901 2822.29 103.955 2807.05 103.955Z" fill="white"/>
<path d="M3257.7 151.712L3128.47 522.188H3012.96L2883.72 151.712H2992.02L3068.79 416.786H3072.64L3149.17 151.712H3257.7Z" fill="white"/>
<path d="M3439.6 529.424C3401.58 529.424 3368.85 521.706 3341.41 506.269C3314.14 490.672 3293.12 468.643 3278.36 440.182C3263.6 411.56 3256.22 377.712 3256.22 338.638C3256.22 300.53 3263.6 267.084 3278.36 238.301C3293.12 209.518 3313.9 187.087 3340.69 171.008C3367.65 154.928 3399.25 146.888 3435.51 146.888C3459.9 146.888 3482.6 150.828 3503.61 158.707C3524.79 166.425 3543.24 178.083 3558.97 193.68C3574.85 209.277 3587.2 228.895 3596.03 252.532C3604.85 276.008 3609.26 303.504 3609.26 335.021V363.24H3297.13V299.565H3512.76C3512.76 284.771 3509.55 271.667 3503.13 260.25C3496.72 248.833 3487.81 239.909 3476.42 233.477C3465.19 226.885 3452.11 223.588 3437.19 223.588C3421.63 223.588 3407.83 227.206 3395.8 234.442C3383.93 241.517 3374.62 251.084 3367.89 263.144C3361.15 275.043 3357.7 288.309 3357.54 302.941V363.482C3357.54 381.812 3360.91 397.651 3367.65 410.997C3374.54 424.343 3384.25 434.634 3396.76 441.87C3409.28 449.106 3424.12 452.724 3441.29 452.724C3452.68 452.724 3463.1 451.116 3472.57 447.9C3482.04 444.684 3490.14 439.86 3496.88 433.428C3503.61 426.996 3508.75 419.117 3512.28 409.791L3607.1 416.062C3602.28 438.895 3592.42 458.834 3577.5 475.879C3562.74 492.762 3543.64 505.948 3520.22 515.435C3496.96 524.761 3470.08 529.424 3439.6 529.424Z" fill="white"/>
<path d="M178.696 18.0886C211.69 12.9612 246.641 51.8693 256.707 105.556C266.773 158.942 248.599 206.597 215.605 212.026C182.89 217.455 147.66 178.547 137.314 124.86C126.968 71.4741 145.702 23.8192 178.696 18.0886ZM378.617 18.0886C411.89 23.8192 430.345 71.4741 420.558 124.86C409.933 178.547 374.982 217.455 341.988 212.026C308.715 206.597 290.54 158.942 300.885 105.556C310.951 51.8693 345.903 12.9612 378.617 18.0886ZM29.1052 156.831C60.9806 142.052 104.32 168.895 126.968 215.645C148.219 263.3 140.949 313.368 109.353 328.147C77.7572 342.926 34.6973 316.384 12.6082 269.031C-9.48094 221.678 -1.65188 171.308 29.1052 156.831ZM532.402 156.831C563.159 171.308 570.988 221.678 548.899 269.031C526.81 316.384 483.75 342.926 452.154 328.147C420.558 313.368 413.288 263.3 434.539 215.645C457.187 168.895 500.527 142.052 532.402 156.831ZM485.707 481.97C486.826 510.322 466.694 541.689 442.647 553.452C392.597 578.185 333.32 526.91 277.678 526.91C222.036 526.91 162.199 580.296 112.988 553.452C85.027 538.673 65.734 499.463 69.3689 466.889C74.4019 421.949 124.452 397.82 154.091 364.944C193.515 322.416 221.476 242.489 277.678 242.489C333.6 242.489 363.238 321.21 400.986 364.944C432.022 401.741 483.75 432.807 485.707 481.97Z" fill="#FFF6F6"/>
<path d="M1878.14 328.129C1878.14 403.152 1817.46 463.97 1742.61 463.97C1667.75 463.97 1607.07 403.152 1607.07 328.129C1607.07 253.106 1667.75 192.288 1742.61 192.288C1817.46 192.288 1878.14 253.106 1878.14 328.129Z" fill="white"/>
<path d="M1726.78 250.651C1738.16 249.003 1750.21 261.51 1753.68 278.766C1757.15 295.926 1750.88 311.243 1739.51 312.988C1728.22 314.734 1716.08 302.227 1712.51 284.971C1708.94 267.811 1715.4 252.493 1726.78 250.651ZM1795.72 250.651C1807.19 252.493 1813.55 267.811 1810.18 284.971C1806.52 302.227 1794.46 314.734 1783.09 312.988C1771.61 311.243 1765.35 295.926 1768.91 278.766C1772.38 261.51 1784.44 249.003 1795.72 250.651ZM1675.2 295.247C1686.19 290.497 1701.13 299.125 1708.94 314.152C1716.27 329.469 1713.76 345.563 1702.87 350.313C1691.97 355.064 1677.12 346.532 1669.51 331.311C1661.89 316.091 1664.59 299.901 1675.2 295.247ZM1848.75 295.247C1859.35 299.901 1862.05 316.091 1854.43 331.311C1846.82 346.532 1831.97 355.064 1821.07 350.313C1810.18 345.563 1807.67 329.469 1815 314.152C1822.81 299.125 1837.75 290.497 1848.75 295.247ZM1832.64 399.756C1833.03 408.869 1826.09 418.952 1817.8 422.733C1800.54 430.682 1780.1 414.201 1760.91 414.201C1741.72 414.201 1721.09 431.361 1704.12 422.733C1694.48 417.982 1687.83 405.379 1689.08 394.909C1690.82 380.464 1708.07 372.708 1718.29 362.141C1731.89 348.471 1741.53 322.78 1760.91 322.78C1780.19 322.78 1790.41 348.083 1803.43 362.141C1814.13 373.968 1831.97 383.954 1832.64 399.756Z" fill="black"/>
<path d="M3820.11 423.708C3820.11 440.635 3814.25 454.812 3802.52 466.238C3790.79 477.663 3776.12 483.376 3758.53 483.376C3741.77 483.376 3727.53 476.817 3715.8 463.698C3704.07 450.58 3698.2 434.076 3698.2 414.186C3698.2 399.798 3701.34 383.929 3707.63 366.578C3714.33 349.228 3722.92 331.666 3733.39 313.892C3744.28 296.119 3756.43 278.557 3769.84 261.206C3783.66 243.432 3797.49 226.928 3811.31 211.694L3828.28 225.659C3809.43 248.087 3793.72 270.728 3781.15 293.579C3768.58 316.431 3761.04 338.86 3758.53 360.865C3775.29 362.135 3789.74 368.483 3801.89 379.909C3814.04 391.334 3820.11 405.934 3820.11 423.708ZM4000.46 423.708C4000.46 440.635 3994.59 454.812 3982.86 466.238C3971.13 477.663 3956.47 483.376 3938.88 483.376C3922.12 483.376 3907.88 476.817 3896.15 463.698C3884.42 450.58 3878.55 434.076 3878.55 414.186C3878.55 399.798 3881.69 383.929 3887.98 366.578C3894.68 349.228 3903.27 331.666 3913.74 313.892C3924.63 296.119 3936.78 278.557 3950.19 261.206C3964.01 243.432 3977.84 226.928 3991.66 211.694L4008 225.659C3989.15 248.087 3973.44 270.728 3960.87 293.579C3948.72 316.431 3941.39 338.86 3938.88 360.865C3955.63 362.135 3970.09 368.483 3982.24 379.909C3994.38 391.334 4000.46 405.934 4000.46 423.708Z" fill="black"/>
</svg>
