<svg width="207" height="29" viewBox="0 0 207 29" fill="none" xmlns="http://www.w3.org/2000/svg">
<path d="M32.1129 27V7.90914H37.1591V11.2774H37.3828C37.7805 10.1588 38.4434 9.27632 39.3714 8.63002C40.2995 7.98371 41.4098 7.66056 42.7024 7.66056C44.0116 7.66056 45.1261 7.98785 46.0458 8.64245C46.9656 9.28875 47.5787 10.1671 47.8853 11.2774H48.0842C48.4736 10.1836 49.1779 9.30947 50.1971 8.65487C51.2246 7.992 52.4384 7.66056 53.8388 7.66056C55.6203 7.66056 57.0662 8.22815 58.1765 9.36333C59.2951 10.4902 59.8544 12.0894 59.8544 14.1609V27H54.5721V15.2049C54.5721 14.1443 54.2904 13.3489 53.7269 12.8186C53.1635 12.2883 52.4592 12.0231 51.614 12.0231C50.6528 12.0231 49.9029 12.3297 49.3643 12.9429C48.8258 13.5477 48.5565 14.3473 48.5565 15.3417V27H43.4233V15.0931C43.4233 14.1568 43.154 13.411 42.6154 12.8559C42.0851 12.3007 41.3849 12.0231 40.5149 12.0231C39.9266 12.0231 39.3963 12.1723 38.924 12.4706C38.46 12.7606 38.0913 13.1707 37.8178 13.701C37.5444 14.2231 37.4077 14.8362 37.4077 15.5405V27H32.1129Z" fill="white"/>
<path d="M71.337 27.3729C69.3733 27.3729 67.6829 26.9752 66.266 26.1797C64.8574 25.376 63.7719 24.2408 63.0096 22.7742C62.2473 21.2993 61.8662 19.5551 61.8662 17.5416C61.8662 15.5778 62.2473 13.8543 63.0096 12.3711C63.7719 10.8879 64.845 9.73205 66.2287 8.90345C67.6208 8.07486 69.2531 7.66056 71.1257 7.66056C72.3852 7.66056 73.5577 7.86356 74.6432 8.26958C75.7369 8.6673 76.6898 9.26804 77.5018 10.0718C78.3221 10.8755 78.9601 11.8864 79.4159 13.1044C79.8716 14.3142 80.0995 15.7311 80.0995 17.3552V18.8093H63.9791V15.5281H75.1154C75.1154 14.7658 74.9497 14.0905 74.6183 13.5022C74.2868 12.9139 73.827 12.454 73.2387 12.1226C72.6587 11.7828 71.9833 11.613 71.2128 11.613C70.409 11.613 69.6964 11.7994 69.075 12.1723C68.4618 12.5369 67.9812 13.0299 67.6332 13.6513C67.2852 14.2645 67.107 14.9481 67.0988 15.7021V18.8218C67.0988 19.7664 67.2728 20.5825 67.6208 21.2703C67.9771 21.958 68.4784 22.4883 69.1247 22.8612C69.771 23.2341 70.5374 23.4205 71.424 23.4205C72.0123 23.4205 72.5509 23.3376 73.0398 23.1719C73.5287 23.0062 73.9471 22.7576 74.2951 22.4262C74.6431 22.0947 74.9083 21.6887 75.0906 21.2081L79.9876 21.5313C79.739 22.7079 79.2294 23.7354 78.4588 24.6137C77.6965 25.4837 76.7105 26.1632 75.5007 26.652C74.2993 27.1326 72.9114 27.3729 71.337 27.3729Z" fill="white"/>
<path d="M90.7804 27.3729C88.8498 27.3729 87.1802 26.9628 85.7716 26.1424C84.3712 25.3138 83.2899 24.1621 82.5276 22.6872C81.7653 21.204 81.3841 19.4847 81.3841 17.5292C81.3841 15.5571 81.7653 13.8336 82.5276 12.3587C83.2899 10.8755 84.3712 9.72377 85.7716 8.90345C87.1802 8.07486 88.8498 7.66056 90.7804 7.66056C92.7111 7.66056 94.3766 8.07486 95.7769 8.90345C97.1855 9.72377 98.271 10.8755 99.0333 12.3587C99.7956 13.8336 100.177 15.5571 100.177 17.5292C100.177 19.4847 99.7956 21.204 99.0333 22.6872C98.271 24.1621 97.1855 25.3138 95.7769 26.1424C94.3766 26.9628 92.7111 27.3729 90.7804 27.3729ZM90.8053 23.2714C91.6836 23.2714 92.4169 23.0228 93.0052 22.5256C93.5935 22.0202 94.0368 21.3324 94.3351 20.4624C94.6417 19.5924 94.795 18.6022 94.795 17.4919C94.795 16.3816 94.6417 15.3914 94.3351 14.5214C94.0368 13.6513 93.5935 12.9636 93.0052 12.4581C92.4169 11.9527 91.6836 11.7 90.8053 11.7C89.9187 11.7 89.173 11.9527 88.5681 12.4581C87.9715 12.9636 87.5199 13.6513 87.2133 14.5214C86.915 15.3914 86.7659 16.3816 86.7659 17.4919C86.7659 18.6022 86.915 19.5924 87.2133 20.4624C87.5199 21.3324 87.9715 22.0202 88.5681 22.5256C89.173 23.0228 89.9187 23.2714 90.8053 23.2714Z" fill="white"/>
<path d="M105.507 27L100.312 7.90914H105.669L108.627 20.7358H108.801L111.883 7.90914H117.141L120.273 20.6613H120.434L123.343 7.90914H128.687L123.504 27H117.899L114.617 14.9937H114.381L111.1 27H105.507Z" fill="white"/>
<path d="M140.266 7.90914V11.8864H128.769V7.90914H140.266ZM131.379 3.33527H136.674V21.1336C136.674 21.6224 136.749 22.0036 136.898 22.277C137.047 22.5422 137.254 22.7286 137.519 22.8363C137.793 22.9441 138.108 22.9979 138.464 22.9979C138.712 22.9979 138.961 22.9772 139.21 22.9358C139.458 22.8861 139.649 22.8488 139.781 22.8239L140.614 26.7639C140.349 26.8468 139.976 26.942 139.495 27.0498C139.015 27.1658 138.431 27.2362 137.743 27.2611C136.467 27.3108 135.348 27.1409 134.387 26.7515C133.434 26.362 132.693 25.7571 132.162 24.9368C131.632 24.1165 131.371 23.0808 131.379 21.8296V3.33527Z" fill="white"/>
<path d="M142.315 27V7.90914H147.61V27H142.315ZM144.975 5.4482C144.188 5.4482 143.512 5.18719 142.949 4.66517C142.394 4.13487 142.116 3.50099 142.116 2.76354C142.116 2.03437 142.394 1.40878 142.949 0.886764C143.512 0.356461 144.188 0.0913086 144.975 0.0913086C145.762 0.0913086 146.433 0.356461 146.988 0.886764C147.552 1.40878 147.834 2.03437 147.834 2.76354C147.834 3.50099 147.552 4.13487 146.988 4.66517C146.433 5.18719 145.762 5.4482 144.975 5.4482Z" fill="white"/>
<path d="M168.249 7.90914L161.575 27H155.609L148.935 7.90914H154.528L158.493 21.5686H158.692L162.644 7.90914H168.249Z" fill="white"/>
<path d="M177.644 27.3729C175.68 27.3729 173.99 26.9752 172.573 26.1797C171.164 25.376 170.079 24.2408 169.317 22.7742C168.554 21.2993 168.173 19.5551 168.173 17.5416C168.173 15.5778 168.554 13.8543 169.317 12.3711C170.079 10.8879 171.152 9.73205 172.536 8.90345C173.928 8.07486 175.56 7.66056 177.433 7.66056C178.692 7.66056 179.865 7.86356 180.95 8.26958C182.044 8.6673 182.997 9.26804 183.809 10.0718C184.629 10.8755 185.267 11.8864 185.723 13.1044C186.179 14.3142 186.406 15.7311 186.406 17.3552V18.8093H170.286V15.5281H181.422C181.422 14.7658 181.257 14.0905 180.925 13.5022C180.594 12.9139 180.134 12.454 179.546 12.1226C178.966 11.7828 178.29 11.613 177.52 11.613C176.716 11.613 176.003 11.7994 175.382 12.1723C174.769 12.5369 174.288 13.0299 173.94 13.6513C173.592 14.2645 173.414 14.9481 173.406 15.7021V18.8218C173.406 19.7664 173.58 20.5825 173.928 21.2703C174.284 21.958 174.785 22.4883 175.432 22.8612C176.078 23.2341 176.844 23.4205 177.731 23.4205C178.319 23.4205 178.858 23.3376 179.347 23.1719C179.836 23.0062 180.254 22.7576 180.602 22.4262C180.95 22.0947 181.215 21.6887 181.398 21.2081L186.295 21.5313C186.046 22.7079 185.536 23.7354 184.766 24.6137C184.004 25.4837 183.018 26.1632 181.808 26.652C180.606 27.1326 179.218 27.3729 177.644 27.3729Z" fill="white"/>
<path d="M9.22907 1.02343C10.9331 0.759206 12.7382 2.76417 13.2581 5.53071C13.778 8.28171 12.8393 10.7374 11.1353 11.0172C9.44568 11.2969 7.62613 9.29196 7.09182 6.52542C6.5575 3.77442 7.52504 1.31873 9.22907 1.02343ZM19.5543 1.02343C21.2728 1.31873 22.2259 3.77442 21.7205 6.52542C21.1717 9.29196 19.3666 11.2969 17.6626 11.0172C15.9441 10.7374 15.0054 8.28171 15.5397 5.53071C16.0596 2.76417 17.8647 0.759206 19.5543 1.02343ZM1.50319 8.17291C3.14945 7.41133 5.38779 8.7946 6.5575 11.2037C7.65501 13.6594 7.27955 16.2394 5.64772 17.001C4.0159 17.7625 1.792 16.3948 0.651172 13.9547C-0.489659 11.5145 -0.085314 8.91894 1.50319 8.17291ZM27.4968 8.17291C29.0853 8.91894 29.4897 11.5145 28.3488 13.9547C27.208 16.3948 24.9841 17.7625 23.3523 17.001C21.7205 16.2394 21.345 13.6594 22.4425 11.2037C23.6122 8.7946 25.8506 7.41133 27.4968 8.17291ZM25.0852 24.9276C25.1429 26.3885 24.1032 28.005 22.8613 28.6111C20.2764 29.8856 17.2149 27.2434 14.3412 27.2434C11.4674 27.2434 8.37706 29.9944 5.83546 28.6111C4.39137 27.8495 3.39494 25.829 3.58268 24.1504C3.84261 21.8346 6.42753 20.5913 7.95827 18.8971C9.99444 16.7057 11.4385 12.5869 14.3412 12.5869C17.2293 12.5869 18.7601 16.6435 20.7096 18.8971C22.3125 20.7933 24.9841 22.3942 25.0852 24.9276Z" fill="#FFF6F6"/>
<path d="M97 17C97 20.866 93.866 24 90 24C86.134 24 83 20.866 83 17C83 13.1341 86.134 10 90 10C93.866 10 97 13.1341 97 17Z" fill="white"/>
<path d="M89.1824 13.0076C89.77 12.9226 90.3925 13.5671 90.5718 14.4563C90.751 15.3406 90.4273 16.1299 89.8397 16.2198C89.2571 16.3098 88.6297 15.6653 88.4455 14.7761C88.2612 13.8918 88.5948 13.1025 89.1824 13.0076ZM92.7429 13.0076C93.3354 13.1025 93.6641 13.8918 93.4898 14.7761C93.3006 15.6653 92.6781 16.3098 92.0905 16.2198C91.498 16.1299 91.1743 15.3406 91.3585 14.4563C91.5378 13.5671 92.1603 12.9226 92.7429 13.0076ZM86.5183 15.3056C87.086 15.0608 87.8579 15.5054 88.2612 16.2798C88.6397 17.0691 88.5102 17.8984 87.9475 18.1432C87.3848 18.388 86.6179 17.9484 86.2245 17.164C85.8312 16.3797 85.9706 15.5454 86.5183 15.3056ZM95.4817 15.3056C96.0294 15.5454 96.1688 16.3797 95.7755 17.164C95.3821 17.9484 94.6152 18.388 94.0525 18.1432C93.4898 17.8984 93.3603 17.0691 93.7388 16.2798C94.1421 15.5054 94.914 15.0608 95.4817 15.3056ZM94.6501 20.691C94.67 21.1606 94.3114 21.6802 93.8832 21.875C92.9918 22.2847 91.9362 21.4354 90.9452 21.4354C89.9543 21.4354 88.8886 22.3197 88.0122 21.875C87.5143 21.6302 87.1707 20.9808 87.2354 20.4412C87.325 19.6969 88.2164 19.2972 88.7442 18.7527C89.4464 18.0483 89.9443 16.7244 90.9452 16.7244C91.9412 16.7244 92.469 18.0283 93.1412 18.7527C93.694 19.3622 94.6152 19.8767 94.6501 20.691Z" fill="black"/>
<path d="M197.296 21.9253C197.296 22.7976 196.993 23.5281 196.387 24.1169C195.782 24.7057 195.024 25 194.116 25C193.25 25 192.515 24.662 191.909 23.986C191.303 23.31 191 22.4595 191 21.4346C191 20.6932 191.162 19.8754 191.487 18.9814C191.833 18.0873 192.277 17.1823 192.817 16.2664C193.38 15.3505 194.007 14.4455 194.7 13.5514C195.414 12.6356 196.128 11.7851 196.842 11L197.718 11.7197C196.744 12.8754 195.933 14.0421 195.284 15.2197C194.635 16.3972 194.245 17.553 194.116 18.687C194.981 18.7524 195.728 19.0795 196.355 19.6683C196.982 20.2571 197.296 21.0094 197.296 21.9253ZM206.611 21.9253C206.611 22.7976 206.308 23.5281 205.702 24.1169C205.096 24.7057 204.339 25 203.43 25C202.565 25 201.829 24.662 201.223 23.986C200.617 23.31 200.314 22.4595 200.314 21.4346C200.314 20.6932 200.477 19.8754 200.801 18.9814C201.147 18.0873 201.591 17.1823 202.132 16.2664C202.694 15.3505 203.322 14.4455 204.014 13.5514C204.728 12.6356 205.442 11.7851 206.156 11L207 11.7197C206.026 12.8754 205.215 14.0421 204.566 15.2197C203.938 16.3972 203.56 17.553 203.43 18.687C204.295 18.7524 205.042 19.0795 205.669 19.6683C206.297 20.2571 206.611 21.0094 206.611 21.9253Z" fill="black"/>
</svg>
