<svg width="187" height="173" viewBox="0 0 187 173" fill="none" xmlns="http://www.w3.org/2000/svg">
<path fill-rule="evenodd" clip-rule="evenodd" d="M43.792 95.0692C44.0176 96.1584 43.7653 97.2957 43.3525 98.3285C43.4559 98.427 43.5593 98.5254 43.6627 98.6238C45.7279 97.0162 47.8253 95.375 49.3268 93.2315C49.9594 92.3284 49.2121 91.01 48.199 90.5748C47.1859 90.1397 46.034 90.2739 44.9324 90.2273C43.6069 90.1711 42.2938 89.8376 41.1021 89.2544C39.3721 88.4077 37.7844 87.011 35.8585 86.9823C35.6459 86.9791 35.4182 86.9987 35.2511 87.1302C34.8437 87.4509 35.0926 88.1039 35.3986 88.5225C36.917 90.6001 39.1932 92.1108 41.6974 92.7031C42.7798 92.959 43.5664 93.9801 43.792 95.0692Z" fill="#64FCD9"/>
<path fill-rule="evenodd" clip-rule="evenodd" d="M77.0154 126.801L49.6371 132.911C44.0414 134.16 38.4927 130.636 37.2438 125.04C36.6419 122.343 37.1402 119.517 38.6283 117.189L53.734 93.5515C58.3844 86.2747 59.9415 77.444 58.0604 69.0155L51.9501 41.6372C50.7012 36.0415 54.225 30.4928 59.8208 29.2439C62.5179 28.642 65.3437 29.1403 67.6723 30.6284L91.3096 45.7341C98.5865 50.3845 107.417 51.9416 115.846 50.0605L143.224 43.9502C148.82 42.7013 154.368 46.2251 155.617 51.8209C156.219 54.518 155.721 57.3438 154.233 59.6724L139.127 83.3097C134.477 90.5866 132.92 99.4173 134.801 107.846L140.911 135.224C142.16 140.82 138.636 146.368 133.04 147.617C130.343 148.219 127.517 147.721 125.189 146.233L101.551 131.127C94.2746 126.477 85.4439 124.92 77.0154 126.801Z" fill="#64FCD9"/>
<path d="M173.309 116.142C173.309 116.142 50.6134 116.206 2.03521 116.142C-1.77767 107.83 3.01904 96.7232 11.6842 93.8C8.97237 96.8938 6.26053 99.9875 3.54868 103.081C8.31324 103.033 173.309 103.081 173.309 103.081V116.142Z" fill="white"/>
<path fill-rule="evenodd" clip-rule="evenodd" d="M133.737 116.16C72.8163 116.184 28.9156 116.178 2.03537 116.142C-1.77751 107.83 91.7127 111.33 127.164 111.33C162.615 111.33 146.214 116.155 133.737 116.16Z" fill="#E7EAEE"/>
<path fill-rule="evenodd" clip-rule="evenodd" d="M108.366 20.8517C108.799 20.358 109.653 20.3215 110.127 20.7765C108.597 17.7473 104.123 16.8392 103.161 13.5848C101.931 9.41887 100.115 5.42607 97.7853 1.76001C96.8157 5.36433 94.9634 8.72779 92.4357 11.474C91.7781 11.477 91.1204 11.48 90.4628 11.4829C88.9689 11.4896 87.4616 11.4978 86.0026 11.819C83.3776 12.3969 81.0248 13.9623 78.3652 14.3518C78.5623 14.1049 78.7594 13.858 78.9565 13.6112C78.9016 13.3564 78.5324 13.2398 78.3412 13.4169C78.0045 12.077 76.9192 11.0247 75.6882 10.3975C74.4571 9.77026 72.6418 8.60279 69.0085 8.90989C73.4168 13.8447 72.0516 34.3887 73.1362 38.282C73.506 38.3808 73.7891 37.9764 74.0297 37.6787C74.2703 37.3809 74.832 37.198 74.9619 37.5581C75.8649 40.0612 75.9933 43.913 78.7612 45.4044C79.2954 45.6922 79.6131 45.1545 79.5716 44.8925C79.5187 44.558 79.9206 44.3002 80.2555 44.351C80.5904 44.4018 80.8582 44.6444 81.1194 44.8601C85.5223 48.4954 92.7315 46.6216 97.1396 50.2506C98.0106 50.9677 98.7781 51.9022 99.8651 52.2041C100.514 52.3842 101.205 52.3132 101.868 52.1944C105.814 51.4872 109.327 49.146 112.067 46.2204C114.808 43.2948 116.854 39.7965 118.759 36.2694C117.004 35.2754 115.158 34.1919 114.205 32.4144C113.454 31.0139 112.991 29.0063 111.411 28.8351C111.913 30.4629 112.414 32.0907 112.915 33.7186C113.098 34.3146 113.284 34.9362 113.187 35.5523C113.09 36.1684 112.619 36.7736 111.996 36.8048C111.151 36.8472 110.556 35.8906 109.716 35.7817C109.557 38.9302 108.348 42.0167 106.327 44.4356C105.625 45.275 104.276 46.0372 103.564 45.2065C104.645 43.4609 105.725 41.7152 106.806 39.9695C107.479 38.8816 108.17 37.7433 108.294 36.4698C108.417 35.1963 107.786 33.7518 106.561 33.3804C106.507 33.0438 106.862 32.7546 107.203 32.7445C107.544 32.7345 107.858 32.915 108.151 33.0897C109.241 33.7398 110.331 34.39 111.421 35.0401C111.073 32.4554 110.362 29.9199 109.315 27.5314C110.329 27.4353 111.367 27.5903 112.309 27.9788C111.583 25.8805 110.253 23.995 108.52 22.6076C108.008 22.1972 107.933 21.3453 108.366 20.8517Z" fill="white"/>
<path fill-rule="evenodd" clip-rule="evenodd" d="M86.5977 15.2818C87.4957 15.8762 88.204 16.7526 88.5969 17.7553C88.7191 18.0671 89.0661 18.2175 89.3003 18.4569C89.5344 18.6964 89.5733 19.2081 89.2451 19.275C89.1016 19.3042 88.9607 19.2252 88.835 19.1501C86.8217 17.9479 84.3733 16.9772 82.1768 17.7983C82.5379 17.9828 82.7203 18.4561 82.5762 18.8352C83.0245 18.8514 83.4425 19.053 83.8452 19.2507C84.1999 19.4247 84.5546 19.5988 84.9093 19.7728C84.8722 19.8776 84.835 19.9823 84.7978 20.087C83.1942 19.2704 81.2354 19.1855 79.5671 19.8603C80.1216 19.9445 80.6865 19.9599 81.2447 19.906C82.0587 20.3163 82.8726 20.7265 83.6866 21.1367C83.8677 21.228 84.0587 21.3283 84.1605 21.5037C84.2624 21.679 84.2237 21.9509 84.0342 22.0231C82.5635 20.726 80.483 20.1524 78.5553 20.5127C78.3304 20.5547 78.1765 20.2409 78.272 20.033C78.3675 19.825 78.5964 19.7182 78.8093 19.6344C79.8778 19.2137 81.0048 18.9415 82.1476 18.8283C81.5759 18.2983 80.9138 17.8663 80.1985 17.5564C80.0807 17.1536 80.662 16.7674 80.9877 17.0321C83.4627 16.547 86.1143 17.0284 88.2608 18.3526C88.2788 17.9316 87.9664 17.5775 87.6742 17.2738C86.7609 16.3243 85.8475 15.3748 84.9342 14.4253C86.5335 14.6279 88.1011 15.0782 89.5642 15.7552C89.8951 15.9083 90.2219 16.0737 90.5216 16.2812C91.6504 17.0626 92.3222 18.4605 92.2271 19.83C91.5433 18.3848 90.461 17.1307 89.1314 16.2428C88.3714 15.7354 87.5096 15.3402 86.5977 15.2818V15.2818Z" fill="#E7EAEE"/>
<path fill-rule="evenodd" clip-rule="evenodd" d="M28.4607 83.5883C26.1447 85.6671 26.3469 89.3453 27.1829 92.343C28.2583 96.1995 30.0769 99.8473 32.5095 103.027L3.54868 103.318L11.6842 94.037C3.01904 96.9601 -1.77767 108.067 2.03521 116.379C50.6133 116.443 99.1917 116.344 147.769 116.081C138.909 122.069 130.32 129.333 126.202 139.203C122.085 149.072 123.79 162.049 132.543 168.193C135.803 170.481 139.718 171.654 143.631 172.395C147.667 173.16 152.553 173.192 155.044 169.926C156.499 168.019 155.803 165.026 155.116 162.066C154.636 160.002 154.16 157.953 154.42 156.3C155.302 150.695 159.075 147.853 163.381 144.61C164.285 143.928 165.213 143.229 166.143 142.483C174.08 136.113 183.178 128.059 185.495 118.149C187.61 109.097 185.282 100.118 179.231 93.0612C177.052 90.5203 174.374 88.2077 171.682 85.8835C168.065 82.7602 164.423 79.6158 161.936 75.8681C160.417 73.5795 159.885 71.1329 159.327 68.5656C159.126 67.6441 158.922 66.7071 158.668 65.7562C155.406 53.5476 143.773 47.2702 131.794 40.8065L131.793 40.8057L131.792 40.8054C130.276 39.9871 128.754 39.1658 127.242 38.3291C120.31 34.4911 113.314 29.5783 111.088 21.8879C112.315 21.9358 112.77 20.0908 112.063 19.0864C111.537 18.3394 110.706 17.9191 109.877 17.4998C109.592 17.3553 109.306 17.2109 109.033 17.0533C106.502 15.59 105.051 12.6048 103.565 9.54779C101.333 4.95497 99.0213 0.199951 92.8501 0.199951C92.6174 1.75819 92.8582 3.14641 93.0837 4.44707C93.4323 6.45714 93.7446 8.25809 92.2173 10.1543C87.8439 9.66931 83.3227 10.6257 79.5203 12.8401C77.322 8.66661 71.7467 6.88382 67.2274 8.23503C67.7997 8.95539 68.139 9.31671 68.4204 9.61622C69.0147 10.2489 69.35 10.6059 71.0743 13.4892C73.6148 17.7375 72.0052 33.3551 71.6032 35.8243C71.2012 38.2935 73.1037 40.0483 74.8439 38.829C73.9963 42.4888 77.0502 45.9815 80.8055 46.0868C82.0881 46.3155 82.8851 46.936 83.6384 47.5224C84.1069 47.8871 84.5585 48.2386 85.0995 48.4745C73.1756 57.0034 59.9754 63.7448 46.0754 68.4044L45.8309 68.4863C43.2301 69.3568 40.5115 70.2667 38.67 72.2877C36.7707 74.3722 36.3247 78.0726 38.5348 79.8241C37.1854 81.0478 35.3385 81.3805 33.4911 81.7134C31.6513 82.0448 29.8109 82.3764 28.4607 83.5883ZM151.64 100.094C149.488 102.127 145.274 102.234 142.314 102.222L103.92 102.065C102.811 100.591 103.497 98.3256 104.929 97.1641C106.362 96.0026 108.291 95.69 110.13 95.5444C116.065 95.0746 122.101 95.9272 127.673 98.0227C129.237 98.3007 130.426 96.3267 130.047 94.7831C129.669 93.2395 128.355 92.1355 127.132 91.1199C123.188 87.8431 119.32 84.1531 117.469 79.3711C115.549 74.4119 116.106 68.5615 118.927 64.0537C114.191 67.9887 113.196 75.2219 115.323 81.0008C117.45 86.7796 122.121 91.2747 127.183 94.7818C124.419 95.3486 121.549 94.7172 118.708 94.0923C115.265 93.3349 111.866 92.587 108.748 93.9916L108.105 76.4558L106.439 91.8266C106.315 92.9694 105.955 94.3833 104.826 94.5959C101.76 95.1728 99.9418 99.1883 101.531 101.873C100.161 102.798 98.0711 102.384 97.1564 101.007C96.2416 99.6305 96.6703 97.5432 98.0535 96.6384C101.409 94.4437 101.674 89.7157 101.583 85.7077L100.953 58.0344C100.938 57.3663 101.089 56.4881 101.751 56.3961C111.438 55.0502 120.051 47.7714 122.993 38.4442C131.578 42.2899 140.165 46.7243 147.092 52.8312C162.946 66.8066 158.597 78.4271 157.46 81.467C157.261 81.9996 157.16 82.2688 157.284 82.2411C158.074 82.0644 158.449 81.1743 158.668 80.3945C159.179 78.5726 159.512 76.7008 159.661 74.8144C162.277 79.675 166.443 83.3681 170.617 87.0686C174.432 90.4509 178.254 93.8393 180.907 98.1311C184.997 104.75 185.853 113.268 183.162 120.568C179.983 129.192 172.676 135.224 165.469 141.174L165.468 141.174L165.468 141.174L165.468 141.174L165.468 141.175C163.736 142.604 162.011 144.029 160.349 145.484C156.871 148.529 153.372 152.303 153.26 156.924C153.23 158.162 153.451 159.383 153.673 160.605C153.829 161.47 153.986 162.335 154.054 163.207C154.219 165.315 153.699 167.713 151.914 168.846C151.162 169.324 150.267 169.521 149.384 169.648C140.237 170.969 129.031 164.779 126.422 155.912C123.861 147.212 128.356 136.478 134.261 129.594C137.93 125.318 142.677 122.262 147.44 119.196C150.344 117.326 153.253 115.453 155.928 113.297C158.435 111.277 160.91 109.1 162.496 106.298C164.082 103.497 164.652 99.9354 163.227 97.0485C162.059 94.6827 159.758 93.0398 157.502 91.4289C154.664 89.4032 151.897 87.428 151.544 84.1292C151.588 85.6113 152.213 87.2717 152.833 88.9175C153.374 90.3524 153.911 91.7763 154.054 93.0612C154.36 95.8198 153.657 98.1877 151.64 100.094ZM156.308 94.4371C160.162 94.4792 162.425 99.3582 161.341 103.057C160.257 106.755 157.073 109.388 154.054 111.783C152.539 112.985 150.866 114.246 148.932 114.26L3.12979 115.351L2.49097 104.04L30.611 104.014C34.2482 104.01 38.3723 104.218 40.7414 106.978C41.6029 107.981 43.137 106.889 44.1882 106.086C46.6782 104.184 50.0593 104.091 53.1925 104.078L156.07 103.661C157.173 103.657 158.658 103.286 158.621 102.183L151.703 101.923C154.188 100.213 155.902 97.4258 156.308 94.4371ZM49.3144 102.786C50.8576 99.0592 52.0285 95.1779 52.8038 91.219C53.0215 90.1072 53.2087 88.9687 53.0607 87.8455C52.6166 84.4745 49.4156 82.2559 46.4749 80.5491C47.7301 80.5239 48.8007 79.6366 49.6064 78.6737C49.8306 78.4058 50.0447 78.127 50.2588 77.8483C50.814 77.1255 51.3691 76.4027 52.1007 75.8681C53.6015 74.7713 53.8418 74.7516 56.942 74.4974C57.2612 74.4713 57.6108 74.4426 57.9951 74.41C60.7215 74.179 67.3152 71.6947 72.1296 69.8808C74.5857 68.9554 76.5787 68.2045 77.359 68.0162C88.0371 65.4396 95.4386 68.813 97.1055 70.6312C98.0152 71.6235 98.2383 73.0465 98.4211 74.3802C99.2433 80.3802 100.066 86.4748 99.1998 92.4687C99.0381 93.5876 98.7391 94.821 97.7903 95.4357C96.8389 96.052 95.943 96.754 95.1169 97.5303C93.7925 98.7749 92.6017 100.796 93.6305 102.294L49.3144 102.786ZM110.094 20.3314C109.621 19.8764 108.766 19.9129 108.333 20.4066C107.9 20.9002 107.975 21.7521 108.488 22.1625C110.221 23.5499 111.551 25.4354 112.276 27.5337C111.334 27.1452 110.297 26.9902 109.282 27.0863C110.329 29.4748 111.041 32.0104 111.388 34.595L108.118 32.6446C107.825 32.4699 107.512 32.2894 107.171 32.2994C106.83 32.3095 106.474 32.5987 106.529 32.9354C107.753 33.3067 108.385 34.7513 108.261 36.0248C108.138 37.2983 107.447 38.4365 106.774 39.5244L103.532 44.7615C104.244 45.5921 105.593 44.8299 106.294 43.9905C108.316 41.5716 109.525 38.4851 109.684 35.3366C110.074 35.3872 110.411 35.6207 110.745 35.852C111.13 36.1187 111.511 36.3825 111.964 36.3597C112.587 36.3285 113.058 35.7233 113.155 35.1072C113.252 34.4911 113.066 33.8695 112.882 33.2735L111.379 28.39C112.605 28.5228 113.158 29.7606 113.695 30.9629L113.695 30.963C113.85 31.3106 114.004 31.6552 114.172 31.9693C115.126 33.7469 116.971 34.8304 118.726 35.8243C116.821 39.3515 114.775 42.8497 112.035 45.7753C109.294 48.701 105.781 51.0422 101.835 51.7493C101.173 51.8681 100.481 51.9392 99.8327 51.759C99.0199 51.5333 98.3858 50.9539 97.7535 50.3762C97.5401 50.1813 97.3269 49.9865 97.1071 49.8055C94.9044 47.9921 92.0022 47.5527 89.1003 47.1134C86.1949 46.6736 83.2897 46.2338 81.0869 44.415L81.0242 44.363C80.7825 44.1618 80.5312 43.9527 80.223 43.9059C79.8881 43.8551 79.4862 44.1129 79.5391 44.4475C79.5806 44.7095 79.2629 45.2471 78.7287 44.9593C76.669 43.8495 76.071 41.4327 75.5276 39.2372C75.3408 38.4823 75.1605 37.7535 74.9294 37.113C74.7995 36.753 74.2378 36.9359 73.9972 37.2336C73.978 37.2574 73.9585 37.2819 73.9387 37.3067C73.7109 37.5928 73.444 37.9278 73.1037 37.837C72.6975 36.3434 72.8391 34.6552 72.976 33.0218C73.0318 32.3568 73.0867 31.7009 73.1037 31.071C73.1052 31.0141 73.1228 30.8428 73.1502 30.5741L73.1503 30.5735L73.1504 30.5724L73.1505 30.572C73.4651 27.4974 75.0779 11.735 69.0086 8.90983C70.4517 8.62538 72.7804 8.88859 74.8439 10.1543C76.9315 11.4348 78.4319 13.7825 78.3328 13.9067C79.7747 13.6955 81.1264 13.1387 82.4803 12.581C83.6235 12.11 84.7683 11.6385 85.9701 11.3739C87.4291 11.0527 88.9364 11.0446 90.4303 11.0378L92.4032 11.0289C94.5286 8.71985 94.4464 6.19037 94.351 3.257C94.3329 2.70168 94.3144 2.13188 94.3103 1.54636C97.9939 2.03017 101.898 8.97379 103.129 13.1398C103.643 14.8798 105.161 15.9491 106.697 17.0304C108.033 17.9716 109.383 18.9218 110.094 20.3314ZM47.3098 69.4526L47.3108 69.4523L47.3123 69.4519L47.3136 69.4516L47.3143 69.4514C47.7347 69.3447 48.1525 69.2386 48.5645 69.1296C54.8924 67.4553 60.7985 64.5088 66.6534 61.582C73.6289 58.0949 80.7246 54.5238 86.3208 49.0923C86.7533 48.6725 87.4393 48.7016 88.0371 48.7786C90.2476 49.0636 92.422 49.6279 94.4922 50.4539C95.5769 50.8867 96.797 51.6299 96.8046 52.7978C96.8073 53.209 96.6494 53.6022 96.4941 53.9829L95.4519 56.5374C95.0072 57.6273 94.5549 58.7577 94.5933 59.9341C94.6317 61.1105 95.2997 62.3522 96.4315 62.6754C97.5633 62.9986 98.9615 61.9457 98.669 60.8056C98.1682 58.8532 97.8255 56.8604 97.6453 54.8529C99.8504 59.22 99.09 64.4307 98.2769 69.255C95.3582 67.7173 92.303 66.4388 89.159 65.4396C88.0792 65.0964 86.8687 64.7939 85.8486 65.2871C83.3509 66.4947 78.65 66.8165 78.187 66.4919C77.7241 66.1674 77.0908 66.3239 76.5575 66.5114C75.699 66.8131 74.0632 67.4508 72.1089 68.2127L72.1056 68.214L72.1055 68.2141L72.1053 68.2141C67.3063 70.085 60.5888 72.7039 58.7393 72.9382C58.2525 72.9998 57.763 73.0455 57.2737 73.0911L57.2735 73.0911L57.2734 73.0911L57.2732 73.0912L57.2731 73.0912C56.2145 73.1899 55.1564 73.2886 54.1275 73.5489C52.6228 73.9296 51.1395 74.7184 50.3431 76.0506C49.7481 75.7233 49.3767 75.1447 49.0033 74.5628L49.0032 74.5627C48.823 74.2819 48.6423 74.0004 48.4357 73.746C47.8012 72.9644 46.4689 72.482 45.8605 73.2841C45.3268 71.4586 42.6245 70.7539 41.2673 72.0863C41.0576 72.2922 40.8826 72.5295 40.7076 72.7667C40.5257 73.0133 40.3439 73.2599 40.123 73.4711C39.6898 73.8856 38.9962 74.1408 38.4935 73.8142C40.5481 71.1693 44.0068 70.2912 47.3098 69.4526ZM40.6126 102.603C39.0624 103.161 37.3519 102.617 35.814 102.026C34.3603 101.468 32.8428 100.802 31.9596 99.5191C30.8968 97.9754 31.0114 95.9383 31.168 94.0706L31.8241 86.2472C30.8512 87.0653 30.1366 88.1862 29.8056 89.4135C29.0194 87.6792 30.1888 85.3627 32.0511 84.9653C31.2643 84.3137 29.9693 84.7412 29.414 85.5986C28.8586 86.4561 28.8713 87.5602 29.0336 88.5688C29.0774 88.8408 29.1307 89.1124 29.184 89.3841L29.184 89.3841L29.184 89.3842L29.1841 89.3843L29.1841 89.3843C29.3284 90.1197 29.4728 90.8552 29.4283 91.5999C28.2594 89.7732 28.0366 87.375 28.849 85.3643C29.217 84.4537 29.8691 83.5628 30.8228 83.3282C31.7765 83.0936 32.9568 83.8729 32.7988 84.8422C32.4368 87.0637 33.4726 89.344 35.0611 90.9386C36.6496 92.5331 38.7313 93.5376 40.8324 94.3445C41.6057 94.6415 42.5672 95.3217 42.1901 96.0592C41.7963 96.8296 41.5248 97.7012 41.66 98.5558C41.7953 99.4103 42.4212 100.227 43.2737 100.374C44.3245 100.556 45.2596 99.7418 46.015 98.9891L50.478 94.5427C49.8833 96.1951 49.1856 97.8105 48.3904 99.3763C47.8457 100.449 47.2227 101.535 46.2379 102.226C45.2531 102.917 43.8115 103.097 42.8801 102.335C42.3611 101.911 41.6529 102.193 40.9938 102.456C40.8642 102.508 40.7366 102.559 40.6126 102.603ZM40.1708 87.0435C39.7545 86.7674 39.3378 86.4911 38.906 86.2475C37.5685 85.493 35.7923 85.0873 34.5645 86.0096C34.1709 84.7428 34.949 83.3822 35.9638 82.5278C37.7592 81.0164 40.3912 80.5731 42.5826 81.4131C44.6602 82.2095 46.7691 83.0764 48.4194 84.5689C50.0696 86.0613 51.1979 88.3181 50.7739 90.5024C50.3098 90.6153 49.9225 90.2427 49.5605 89.8944C49.4914 89.828 49.4233 89.7624 49.3557 89.7013C48.3293 88.7728 46.9215 88.7476 45.4869 88.722C44.6145 88.7064 43.7322 88.6906 42.9197 88.4715C41.9156 88.2007 41.0442 87.6228 40.1708 87.0435ZM43.3527 98.3284C43.7654 97.2956 44.0178 96.1583 43.7922 95.0692C43.5665 93.98 42.78 92.959 41.6976 92.703C39.1934 92.1108 36.9171 90.6 35.3987 88.5224C35.0928 88.1038 34.8439 87.4508 35.2513 87.1301C35.4184 86.9986 35.646 86.979 35.8586 86.9822C37.2299 87.0026 38.4297 87.7166 39.6315 88.4317L39.6315 88.4318L39.6316 88.4318L39.6317 88.4319L39.6318 88.4319C40.1178 88.7211 40.6042 89.0105 41.1023 89.2543C42.294 89.8375 43.6071 90.171 44.9326 90.2272C45.1982 90.2384 45.4668 90.2392 45.7356 90.2399C46.5816 90.2422 47.4304 90.2445 48.1992 90.5747C49.2123 91.0099 49.9596 92.3283 49.327 93.2314C47.8255 95.375 45.7281 97.0161 43.6629 98.6238L43.3527 98.3284ZM119.362 37.0566C119.593 36.6402 119.935 36.1619 120.408 36.2158C121.02 36.2855 121.143 37.121 121.059 37.7314C120.463 42.062 117.782 45.9122 114.372 48.647C110.961 51.3818 106.858 53.1132 102.708 54.4856C102.423 54.58 102.143 54.7579 101.868 54.9326C101.344 55.2665 100.837 55.5887 100.345 55.2934C99.7772 54.9531 99.9221 54.0195 100.438 53.6058C100.907 53.2304 101.531 53.1498 102.132 53.0722C102.194 53.0643 102.255 53.0564 102.316 53.0482C106.329 52.5079 109.913 50.1271 112.654 47.1472C115.396 44.1673 117.401 40.5992 119.362 37.0566ZM44.9541 73.534C45.3156 73.9647 45.7139 74.4392 46.2626 74.4273C46.7241 74.4173 47.0116 74.7921 47.3095 75.1805C47.5207 75.4558 47.7371 75.7379 48.0245 75.8946C48.7117 76.2692 48.7708 77.3124 48.3197 77.9521C47.8687 78.5918 47.0858 78.9032 46.3285 79.101C44.7843 79.5044 43.1537 79.5741 41.5807 79.304C40.5548 79.1278 39.4914 78.7671 38.8448 77.9515C38.1982 77.1358 38.1798 75.7656 39.0359 75.1737C39.3223 74.9757 39.6671 74.8834 40.0099 74.7917C40.4187 74.6823 40.8246 74.5736 41.1253 74.2873C41.3486 74.0748 41.4823 73.7916 41.6158 73.5087C41.7557 73.2123 41.8953 72.9165 42.1374 72.7029C42.5294 72.3571 43.1232 72.3098 43.6165 72.4826C44.1098 72.6554 44.5152 73.0171 44.8539 73.4152L44.9007 73.4705L44.9541 73.534ZM42.0625 105.379C41.9038 105.441 41.725 105.451 41.5603 105.407C41.401 105.364 41.2558 105.271 41.1508 105.143C40.7236 104.626 41.319 103.69 41.9688 103.858C42.6187 104.026 42.6868 105.133 42.0625 105.379ZM94.8947 102.131C94.7367 102.321 94.3513 102.301 94.3103 102.058C94.1418 101.057 94.0617 99.8268 94.889 99.2398L95.0293 101.423C95.0452 101.669 95.0528 101.942 94.8947 102.131ZM86.5977 13.7217C87.4957 14.3161 88.2041 15.1925 88.5969 16.1952C88.677 16.3995 88.8536 16.5346 89.0318 16.6708C89.1255 16.7424 89.2196 16.8143 89.3003 16.8969C89.5345 17.1363 89.5733 17.648 89.2452 17.7149C89.1017 17.7441 88.9608 17.6651 88.835 17.59C86.8217 16.3878 84.3733 15.4171 82.1768 16.2382C82.538 16.4227 82.7203 16.896 82.5762 17.2751C83.0245 17.2913 83.4425 17.493 83.8453 17.6906L84.9093 18.2128L84.7979 18.5269C83.1942 17.7104 81.2354 17.6255 79.5671 18.3002C80.1216 18.3844 80.6865 18.3998 81.2447 18.3459L83.6866 19.5767C83.8677 19.6679 84.0587 19.7683 84.1606 19.9436C84.2624 20.1189 84.2237 20.3908 84.0343 20.4631C82.5635 19.1659 80.483 18.5923 78.5554 18.9526C78.3304 18.9946 78.1765 18.6808 78.272 18.4729C78.3675 18.2649 78.5964 18.1582 78.8093 18.0743C79.8779 17.6536 81.0048 17.3815 82.1476 17.2682C81.5759 16.7382 80.9138 16.3062 80.1985 15.9963C80.0808 15.5935 80.662 15.2074 80.9877 15.472C83.4627 14.9869 86.1143 15.4683 88.2608 16.7926C88.2788 16.3715 87.9664 16.0174 87.6743 15.7137L84.9342 12.8652C86.5335 13.0678 88.1012 13.5181 89.5642 14.1951C89.8951 14.3483 90.2219 14.5136 90.5217 14.7211C91.6504 15.5025 92.3222 16.9004 92.2271 18.2699C91.5433 16.8248 90.461 15.5706 89.1314 14.6828C88.3714 14.1753 87.5097 13.7801 86.5977 13.7217ZM92.2324 27.0217C92.077 25.8131 92.07 24.524 92.6449 23.4496C92.8168 23.1283 93.0554 22.8195 93.394 22.6849C93.9121 22.4788 94.5084 22.7418 94.917 23.1212C95.9307 24.0624 96.1463 25.587 96.0595 26.9676C96.0218 27.5675 95.9336 28.181 95.6395 28.7053C95.3454 29.2295 94.8076 29.6512 94.2066 29.66C93.6032 29.6689 93.0524 29.2609 92.7385 28.7455C92.4247 28.2301 92.3093 27.6202 92.2324 27.0217ZM77.8021 31.5177C76.6621 29.773 76.739 27.3188 77.986 25.6489C78.135 25.4494 78.3044 25.256 78.5257 25.1419C78.957 24.9197 79.508 25.0537 79.8816 25.3632C80.2552 25.6727 80.4796 26.126 80.6422 26.5831C81.1239 27.937 81.1439 29.4505 80.6981 30.8166C80.4277 31.6452 79.7573 32.5417 78.8987 32.3918C78.4247 32.3091 78.0653 31.9205 77.8021 31.5177ZM88.7524 40.479C88.8895 40.4409 89.0257 40.4031 89.1266 40.3066C89.3402 40.1022 89.265 39.7072 89.0225 39.538C88.78 39.3688 88.4396 39.3981 88.1809 39.5414C87.9191 39.6866 87.7109 39.9738 87.7552 40.2699C87.7995 40.566 88.1782 40.7871 88.4218 40.613C88.5185 40.5439 88.6358 40.5114 88.7524 40.479ZM91.8305 35.6685C93.7232 35.2491 94.7811 35.3022 96.4049 35.716L96.7472 35.8053C98.3673 36.2284 99.3794 36.2302 101.436 35.5636C101.682 35.4839 101.946 35.6186 102.025 35.8645C102.105 36.1104 98.3525 37.1766 96.6372 36.7434L96.321 36.6611C94.7417 36.2463 93.8227 36.1858 92.033 36.5824C91.7806 36.6383 91.5307 36.479 91.4748 36.2267C91.4189 35.9743 91.5782 35.7244 91.8305 35.6685ZM106.696 31.1485C106.582 30.9166 106.302 30.8211 106.07 30.9353C102.739 32.5747 100.894 32.7883 97.8566 32.4005L97.0902 32.3056L97.0593 32.3021C97.02 32.2977 96.9826 32.2937 96.9456 32.2898C96.9122 32.2864 96.879 32.2831 96.8452 32.2798L96.5717 32.2555C94.7635 32.1133 93.3298 32.4201 91.4902 33.5188C91.2683 33.6513 91.1959 33.9386 91.3284 34.1605C91.4609 34.3824 91.7482 34.4549 91.9701 34.3224C93.6818 33.3002 94.9454 33.0467 96.6344 33.2001C96.7464 33.2103 96.8398 33.2195 96.9482 33.2315L98.0713 33.3697C101.089 33.72 106.811 31.3804 106.696 31.1485ZM83.5902 35.542C83.848 35.5236 84.0719 35.7178 84.0902 35.9756C84.1086 36.2334 83.9145 36.4573 83.6567 36.4756C82.5898 36.5516 81.8549 36.9144 80.7517 37.8034L80.3529 38.1329L80.0695 38.3701C79.0971 39.1807 78.4494 39.6225 77.5904 39.9748C77.3512 40.0729 75.6997 40.4089 76.9798 39.7194C78.2598 39.0299 79.9277 37.2684 79.9277 37.2684L80.172 37.0685C81.4099 36.0722 82.2954 35.6342 83.5902 35.542ZM84.2925 37.781C84.191 37.5432 83.9161 37.4328 83.6783 37.5343C82.5035 38.0357 81.8422 38.6766 80.7306 40.1314L80.3874 40.5779C80.1626 40.8655 79.9741 41.1558 79.7911 41.4376C79.3877 42.0588 79.0113 42.6384 78.3321 43.0562C77.3448 43.6635 78.7557 43.3451 78.9759 43.2097C79.8525 42.6706 80.4212 42.0758 81.3084 40.917L81.5659 40.5805C82.5289 39.3318 83.0912 38.8026 84.0458 38.3951C84.2835 38.2937 84.394 38.0187 84.2925 37.781Z" fill="#00160A"/>
<path fill-rule="evenodd" clip-rule="evenodd" d="M85.9321 36.2944C85.5492 35.9494 84.9931 35.8437 84.6191 35.4889C84.2646 35.1527 84.1289 34.6044 84.2857 34.1416C84.4426 33.6788 84.8836 33.3259 85.3695 33.2744C86.7633 33.1266 88.1571 32.9789 89.5508 32.8311C89.8817 32.796 90.2473 32.7697 90.5153 32.9669C90.9245 33.2678 90.86 33.9256 90.5642 34.3385C90.2684 34.7515 89.8127 35.0176 89.4563 35.3795C88.997 35.8461 88.7098 36.4783 88.6607 37.1312C88.6242 37.6159 88.677 38.1936 88.2928 38.4915C87.8106 38.8654 87.0974 38.4236 86.8022 37.8895C86.5069 37.3554 86.3854 36.7029 85.9321 36.2944H85.9321Z" fill="#FFB61D"/>
<path fill-rule="evenodd" clip-rule="evenodd" d="M142.449 102.353C145.41 102.366 149.623 102.259 151.775 100.226C153.792 98.3195 154.495 95.9515 154.189 93.1929C153.883 90.4343 151.761 87.0353 151.68 84.2609C152.313 90.1831 160.727 91.8394 163.362 97.1803C164.787 100.067 164.218 103.629 162.631 106.43C161.045 109.231 158.57 111.409 156.063 113.429C149.002 119.121 140.302 122.842 134.397 129.726C128.491 136.609 123.996 147.343 126.557 156.044C129.167 164.911 140.372 171.101 149.52 169.78C150.402 169.652 151.297 169.455 152.05 168.978C153.835 167.844 154.355 165.447 154.19 163.339C154.025 161.231 153.344 159.169 153.396 157.056C153.508 152.434 157.007 148.661 160.485 145.616C169.061 138.106 179.354 131.396 183.297 120.7C185.989 113.4 185.133 104.881 181.042 98.2628C175.488 89.2754 164.804 84.2493 159.796 74.9462C159.648 76.8326 159.315 78.7044 158.804 80.5262C158.585 81.306 158.21 82.1961 157.419 82.3729C156.589 82.5584 165.859 69.3868 147.228 52.9629C140.3 46.856 131.714 42.4217 123.129 38.5759C120.186 47.9032 111.573 55.182 101.886 56.5279C101.224 56.6198 101.073 57.4981 101.088 58.1661C101.298 67.3905 101.508 76.615 101.718 85.8394C101.81 89.8475 101.544 94.5754 98.189 96.7701C96.8058 97.6749 96.3771 99.7622 97.2918 101.139C98.2066 102.516 100.297 102.929 101.667 102.005C100.077 99.32 101.895 95.3046 104.961 94.7276C106.091 94.5151 106.451 93.1011 106.574 91.9584C107.13 86.8347 107.685 81.7111 108.241 76.5875C108.455 82.4328 108.669 88.278 108.884 94.1233C114.574 91.5596 121.204 96.1672 127.318 94.9135C122.257 91.4065 117.585 86.9114 115.458 81.1325C113.331 75.3536 114.326 68.1204 119.063 64.1855C116.241 68.6932 115.684 74.5436 117.605 79.5028C119.456 84.2848 123.324 87.9748 127.268 91.2517C128.49 92.2672 129.805 93.3713 130.183 94.9148C130.561 96.4584 129.373 98.4325 127.808 98.1544C122.236 96.059 116.2 95.2063 110.266 95.6762C108.427 95.8217 106.498 96.1343 105.065 97.2958C103.632 98.4574 102.946 100.722 104.055 102.196C116.853 102.249 129.651 102.301 142.449 102.353Z" fill="white"/>
<path fill-rule="evenodd" clip-rule="evenodd" d="M149.384 169.648C150.267 169.521 151.162 169.324 151.914 168.846C153.699 167.713 154.219 165.315 154.054 163.207C153.889 161.1 153.209 159.038 153.26 156.924C153.372 152.303 156.871 148.529 160.349 145.484C168.926 137.974 179.219 131.264 183.162 120.568C184.741 116.285 164.916 129.382 154.054 144.8C146.401 155.664 145.603 170.194 149.384 169.648Z" fill="#E7EAEE"/>
<path fill-rule="evenodd" clip-rule="evenodd" d="M156.677 63.1454C155.333 59.9093 151.587 56.7936 147.093 52.8313C140.165 46.7244 131.578 42.2901 122.993 38.4443C131.412 44.5769 141.675 49.696 148.977 57.3928C152.537 61.1443 154.945 68.7045 156.957 71.134C158.498 72.9938 160.51 72.3746 156.677 63.1454Z" fill="#E7EAEE"/>
<path fill-rule="evenodd" clip-rule="evenodd" d="M97.3554 61.8761C97.6609 61.2096 97.8756 58.1331 96.2673 58.1331C95.2641 59.272 95.3671 61.4576 97.3554 61.8761Z" fill="#FFB61D"/>
<path fill-rule="evenodd" clip-rule="evenodd" d="M48.5647 69.1296C44.9134 70.0957 40.8107 70.8315 38.4937 73.8142C38.9964 74.1408 39.6899 73.8856 40.1232 73.4711C40.5565 73.0567 40.8397 72.5063 41.2675 72.0863C42.6247 70.7539 45.3269 71.4586 45.8606 73.2841C46.4691 72.482 47.8013 72.9644 48.4359 73.746C49.0705 74.5276 49.4612 75.5654 50.3433 76.0506C51.1397 74.7184 52.623 73.9296 54.1277 73.5489C55.6324 73.1683 57.1996 73.1332 58.7394 72.9382C61.3428 72.6084 63.8864 71.8131 66.2139 70.6012C66.0725 70.8916 75.716 66.7098 84.5406 66.1036C90.9847 65.661 97.0453 68.606 98.2771 69.255C99.0901 64.4307 99.8506 59.22 97.6455 54.8529C97.8257 56.8604 98.1684 58.8532 98.6692 60.8056C98.9616 61.9457 97.5635 62.9986 96.4317 62.6754C95.2999 62.3522 94.6319 61.1105 94.5935 59.9341C94.5551 58.7577 95.0074 57.6272 95.4521 56.5374C95.7995 55.6859 96.1469 54.8344 96.4943 53.9829C96.6496 53.6022 96.8075 53.209 96.8048 52.7978C96.7972 51.6299 95.5771 50.8867 94.4923 50.4538C92.4222 49.6279 90.2478 49.0636 88.0373 48.7786C87.4395 48.7016 86.7535 48.6725 86.321 49.0923C80.7248 54.5238 73.6291 58.0949 66.6535 61.582C60.7987 64.5088 54.8926 67.4553 48.5647 69.1296Z" fill="white"/>
<path fill-rule="evenodd" clip-rule="evenodd" d="M50.3431 76.0507C51.1395 74.7185 52.6228 73.9297 54.1275 73.549C55.6322 73.1684 57.1994 73.1333 58.7392 72.9383C59.34 72.8622 61.8071 72.4728 65.0095 71.3491C69.6398 69.7245 75.996 67.1308 82.0518 66.4709C89.9568 65.6095 97.0056 68.5854 98.2769 69.2552C99.0899 64.4309 96.3401 65.0102 94.8639 64.8577C62.2265 61.4866 49.461 75.5655 50.3431 76.0507Z" fill="#E7EAEE"/>
</svg>
